<?xml version="1.0" standalone="no"?>
<!DOCTYPE svg PUBLIC "-//W3C//DTD SVG 20010904//EN"
 "http://www.w3.org/TR/2001/REC-SVG-20010904/DTD/svg10.dtd">
<svg version="1.0" xmlns="http://www.w3.org/2000/svg"
 width="300.000000pt" height="300.000000pt" viewBox="0 0 300.000000 300.000000"
 preserveAspectRatio="xMidYMid meet">
<metadata>
Created by potrace 1.11, written by Peter Selinger 2001-2013
</metadata>
<g transform="translate(0.000000,300.000000) scale(0.100000,-0.100000)"
fill="#000000" stroke="none">
<path d="M1435 2529 c-69 -14 -79 -17 -120 -32 -54 -19 -97 -47 -142 -89 -131
-124 -183 -233 -186 -396 -1 -37 -6 -67 -12 -67 -5 0 -48 15 -95 34 -47 18
-123 48 -170 66 -173 68 -229 99 -302 166 -35 31 -126 79 -152 79 -8 0 -17 -4
-20 -9 -3 -5 -21 -12 -40 -15 -34 -7 -73 -48 -68 -73 2 -7 -1 -13 -5 -14 -65
-6 -85 -26 -103 -99 -30 -124 68 -243 188 -227 55 7 82 15 98 28 30 24 179 5
314 -41 261 -89 253 -86 252 -130 -1 -39 13 -78 36 -99 40 -37 49 -175 13
-189 -9 -3 -38 -20 -66 -37 -27 -18 -88 -50 -135 -72 -163 -78 -289 -110 -492
-127 -70 -6 -117 -34 -132 -78 -7 -20 -23 -48 -34 -63 -26 -32 -28 -62 -7
-101 8 -16 15 -36 15 -44 0 -8 7 -24 15 -34 8 -11 15 -36 15 -57 0 -47 33 -91
66 -86 13 1 26 6 29 9 4 4 23 -5 42 -18 43 -29 103 -32 125 -6 16 19 27 45 34
79 2 12 9 35 16 50 6 16 11 31 10 34 -2 9 108 112 143 135 17 10 32 21 35 24
11 11 88 60 145 90 33 18 73 42 88 53 16 10 30 17 33 15 2 -3 6 -36 8 -74 7
-96 12 -116 52 -201 21 -43 38 -97 41 -127 3 -28 10 -57 16 -64 18 -23 50 -9
71 30 14 28 23 35 32 27 13 -10 26 -113 26 -210 1 -52 17 -101 38 -114 19 -12
46 13 48 45 1 18 7 41 13 51 5 11 7 19 4 19 -2 0 6 25 20 55 34 77 39 114 24
180 -10 46 -10 58 0 64 7 5 15 26 17 47 4 43 22 94 34 94 4 0 16 -12 26 -27
49 -77 136 -114 189 -81 6 3 36 4 68 3 56 -3 61 -1 106 39 43 36 149 187 144
204 -1 4 16 41 36 82 24 48 43 74 52 72 8 -2 22 -5 31 -7 9 -2 25 -8 35 -13
10 -6 23 -11 28 -12 45 -9 286 -129 312 -155 8 -8 18 -15 22 -15 12 0 141
-127 183 -180 20 -25 54 -64 77 -88 l42 -44 81 5 c76 4 83 6 105 33 12 16 23
34 23 41 0 7 6 16 13 20 27 17 88 133 87 166 -1 66 0 81 10 91 19 19 10 48
-24 82 -43 43 -84 45 -164 8 -62 -28 -135 -34 -174 -13 -13 7 -24 11 -26 10
-6 -6 -161 57 -312 126 -41 19 -84 38 -95 43 -11 4 -36 15 -55 23 -19 8 -66
27 -105 42 -38 16 -72 30 -74 32 -3 2 5 24 17 51 12 26 21 55 19 66 -2 20 22
35 246 151 109 57 267 127 267 119 0 -3 10 1 23 8 12 6 27 13 32 14 6 1 42 14
80 28 43 15 104 27 154 30 79 6 111 16 111 38 0 5 17 26 38 47 33 33 37 43 36
87 0 27 -5 58 -11 69 -7 14 -7 28 2 49 15 37 4 91 -25 118 -30 28 -78 40 -135
32 -57 -7 -88 -35 -164 -142 -54 -77 -82 -101 -163 -140 -233 -111 -387 -188
-411 -204 -27 -19 -27 -19 -36 4 -5 13 -6 26 -2 30 7 8 1 86 -15 208 -4 30 -6
64 -6 75 6 79 -13 116 -83 163 -39 27 -57 33 -90 30 -30 -2 -40 1 -40 12 -1
18 -26 70 -34 71 -3 0 -15 2 -26 5 -82 17 -248 25 -300 13z"/>
</g>
</svg>
